<svg xmlns="http://www.w3.org/2000/svg" xmlns:xlink="http://www.w3.org/1999/xlink" width="189" zoomAndPan="magnify" viewBox="0 0 141.75 141.750002" height="189" preserveAspectRatio="xMidYMid meet" version="1.0"><defs><clipPath id="afa5f071af"><path d="M 37.140625 37.128906 L 81.984375 37.128906 L 81.984375 82.097656 L 37.140625 82.097656 Z M 37.140625 37.128906 " clip-rule="nonzero"/></clipPath><clipPath id="5bff59fca7"><path d="M 75.8125 44.257812 C 74.953125 44.902344 74.125 45.601562 73.335938 46.359375 C 76.644531 49.800781 78.675781 54.472656 78.675781 59.621094 C 78.675781 64.917969 76.527344 69.710938 73.050781 73.179688 L 75.351562 75.460938 C 79.410156 71.410156 81.917969 65.808594 81.917969 59.621094 C 81.917969 53.671875 79.597656 48.265625 75.8125 44.257812 M 69.898438 75.722656 C 66.910156 77.648438 63.351562 78.769531 59.53125 78.769531 C 48.957031 78.769531 40.386719 70.195312 40.386719 59.621094 C 40.386719 49.046875 48.957031 40.476562 59.53125 40.476562 C 63.304688 40.476562 66.820312 41.570312 69.789062 43.453125 L 72.300781 41.234375 C 68.679688 38.710938 64.277344 37.234375 59.53125 37.234375 C 47.164062 37.234375 37.140625 47.257812 37.140625 59.625 C 37.140625 71.988281 47.164062 82.011719 59.53125 82.011719 C 64.335938 82.011719 68.789062 80.5 72.4375 77.917969 C 71.546875 77.222656 70.699219 76.492188 69.898438 75.722656 M 72.640625 73.574219 C 71.960938 74.214844 71.234375 74.804688 70.46875 75.339844 C 71.242188 76.113281 72.085938 76.839844 72.992188 77.515625 C 73.675781 77 74.332031 76.445312 74.949219 75.855469 C 74.113281 75.144531 73.34375 74.378906 72.640625 73.574219 M 72.851562 41.628906 C 71.972656 42.289062 71.136719 43.023438 70.347656 43.824219 L 72.898438 45.917969 L 75.390625 43.820312 C 74.601562 43.03125 73.753906 42.296875 72.851562 41.628906 " clip-rule="nonzero"/></clipPath><clipPath id="87cd3f0d11"><path d="M 63.898438 44.191406 L 92.886719 44.191406 L 92.886719 81.972656 L 63.898438 81.972656 Z M 63.898438 44.191406 " clip-rule="nonzero"/></clipPath><clipPath id="5f7d88213a"><path d="M 92.871094 80.929688 C 86.5625 82.859375 79.480469 81.980469 73.664062 77.992188 L 73.027344 77.539062 C 73.015625 77.53125 73.003906 77.519531 72.992188 77.515625 C 72.085938 76.839844 71.242188 76.113281 70.46875 75.339844 L 69.980469 74.835938 C 62.71875 67.109375 61.78125 55.066406 68.300781 46.230469 C 68.824219 45.519531 69.378906 44.851562 69.964844 44.222656 C 70.859375 44.867188 71.707031 45.570312 72.511719 46.320312 C 71.992188 46.871094 71.496094 47.460938 71.039062 48.085938 C 65.527344 55.554688 66.257812 65.800781 72.1875 73.035156 L 72.640625 73.574219 C 73.34375 74.378906 74.113281 75.144531 74.949219 75.855469 L 75.570312 76.371094 C 75.789062 76.546875 76.011719 76.714844 76.242188 76.882812 C 81.28125 80.601562 87.328125 81.890625 92.871094 80.929688 " clip-rule="nonzero"/></clipPath><clipPath id="20115ccacf"><path d="M 73.4375 37.128906 L 108.742188 37.128906 L 108.742188 57.941406 L 73.4375 57.941406 Z M 73.4375 37.128906 " clip-rule="nonzero"/></clipPath><clipPath id="c4d39733bd"><path d="M 108.652344 57.941406 C 107.65625 52.832031 104.730469 47.984375 100.085938 44.558594 C 92.632812 39.058594 82.972656 38.875 75.992188 43.414062 C 75.179688 42.632812 74.328125 41.890625 73.4375 41.203125 C 81.097656 35.808594 91.652344 35.632812 99.609375 41.503906 C 105.097656 45.554688 108.199219 51.632812 108.652344 57.941406 " clip-rule="nonzero"/></clipPath><clipPath id="216c3035e8"><path d="M 96.230469 74 L 101.1875 74 L 101.1875 76 L 96.230469 76 Z M 96.230469 74 " clip-rule="nonzero"/></clipPath><clipPath id="a046c1482f"><path d="M 101.070312 74.96875 L 98.339844 74 L 96.335938 74.351562 L 98.945312 75.917969 Z M 101.070312 74.96875 " clip-rule="nonzero"/></clipPath><clipPath id="3a66078841"><path d="M 93.257812 73.550781 L 108.617188 73.550781 L 108.617188 82.714844 L 93.257812 82.714844 Z M 93.257812 73.550781 " clip-rule="nonzero"/></clipPath><clipPath id="072a45fa71"><path d="M 108.535156 74.101562 C 107.003906 73.449219 105.269531 73.480469 103.761719 74.183594 L 96.511719 77.578125 L 94.636719 76.351562 L 93.460938 76.84375 L 94.96875 79.695312 L 93.332031 80.789062 L 95.886719 80.269531 L 101.136719 78.089844 L 100.421875 82.714844 L 101.941406 81.742188 L 103.984375 76.78125 Z M 108.535156 74.101562 " clip-rule="nonzero"/></clipPath><clipPath id="5834b70642"><path d="M 70.339844 41.589844 L 75.417969 41.589844 L 75.417969 45.925781 L 70.339844 45.925781 Z M 70.339844 41.589844 " clip-rule="nonzero"/></clipPath><clipPath id="24e177e91c"><path d="M 75.390625 43.820312 L 72.898438 45.917969 L 72.824219 45.859375 L 72.707031 45.757812 L 70.347656 43.824219 C 71.136719 43.023438 71.972656 42.289062 72.851562 41.628906 C 73.753906 42.296875 74.601562 43.027344 75.390625 43.820312 " clip-rule="nonzero"/></clipPath><clipPath id="d813db56bb"><path d="M 69.96875 73 L 75.667969 73 L 75.667969 78 L 69.96875 78 Z M 69.96875 73 " clip-rule="nonzero"/></clipPath><clipPath id="d073badfa4"><path d="M 75.570312 76.371094 C 74.957031 76.9375 74.324219 77.476562 73.664062 77.992188 L 73.027344 77.539062 C 73.015625 77.53125 73.003906 77.519531 72.992188 77.515625 C 72.085938 76.839844 71.242188 76.113281 70.46875 75.339844 L 69.980469 74.835938 C 70.746094 74.273438 71.484375 73.671875 72.1875 73.035156 L 72.640625 73.574219 C 73.34375 74.378906 74.113281 75.144531 74.949219 75.855469 Z M 75.570312 76.371094 " clip-rule="nonzero"/></clipPath><clipPath id="0fd0993c96"><path d="M 69.597656 46.667969 L 76.164062 46.667969 L 76.164062 70.453125 L 69.597656 70.453125 Z M 69.597656 46.667969 " clip-rule="nonzero"/></clipPath><clipPath id="0873534a84"><path d="M 69.609375 64.023438 L 72.871094 46.761719 L 76.128906 64.023438 L 72.871094 70.34375 Z M 69.609375 64.023438 " clip-rule="nonzero"/></clipPath></defs><g clip-path="url(#afa5f071af)"><g clip-path="url(#5bff59fca7)"><path fill="#5c79ff" d="M 36.519531 36.507812 L 109.238281 36.507812 L 109.238281 83.335938 L 36.519531 83.335938 Z M 36.519531 36.507812 " fill-opacity="1" fill-rule="nonzero"/></g></g><g clip-path="url(#87cd3f0d11)"><g clip-path="url(#5f7d88213a)"><path fill="#ff5353" d="M 36.519531 36.507812 L 109.238281 36.507812 L 109.238281 83.335938 L 36.519531 83.335938 Z M 36.519531 36.507812 " fill-opacity="1" fill-rule="nonzero"/></g></g><g clip-path="url(#20115ccacf)"><g clip-path="url(#c4d39733bd)"><path fill="#ff5353" d="M 36.519531 36.507812 L 109.238281 36.507812 L 109.238281 83.335938 L 36.519531 83.335938 Z M 36.519531 36.507812 " fill-opacity="1" fill-rule="nonzero"/></g></g><g clip-path="url(#216c3035e8)"><g clip-path="url(#a046c1482f)"><path fill="#ffffff" d="M 36.519531 36.507812 L 109.238281 36.507812 L 109.238281 83.335938 L 36.519531 83.335938 Z M 36.519531 36.507812 " fill-opacity="1" fill-rule="nonzero"/></g></g><g clip-path="url(#3a66078841)"><g clip-path="url(#072a45fa71)"><path fill="#ffffff" d="M 36.519531 36.507812 L 109.238281 36.507812 L 109.238281 83.335938 L 36.519531 83.335938 Z M 36.519531 36.507812 " fill-opacity="1" fill-rule="nonzero"/></g></g><g clip-path="url(#5834b70642)"><g clip-path="url(#24e177e91c)"><path fill="#ffffff" d="M 36.519531 36.507812 L 109.238281 36.507812 L 109.238281 83.335938 L 36.519531 83.335938 Z M 36.519531 36.507812 " fill-opacity="1" fill-rule="nonzero"/></g></g><g clip-path="url(#d813db56bb)"><g clip-path="url(#d073badfa4)"><path fill="#ff5353" d="M 36.519531 36.507812 L 109.238281 36.507812 L 109.238281 83.335938 L 36.519531 83.335938 Z M 36.519531 36.507812 " fill-opacity="1" fill-rule="nonzero"/></g></g><g clip-path="url(#0fd0993c96)"><g clip-path="url(#0873534a84)"><path fill="#ffffff" d="M 36.519531 36.507812 L 109.238281 36.507812 L 109.238281 83.335938 L 36.519531 83.335938 Z M 36.519531 36.507812 " fill-opacity="1" fill-rule="nonzero"/></g></g></svg>